<svg xmlns="http://www.w3.org/2000/svg" xmlns:xlink="http://www.w3.org/1999/xlink" width="407" zoomAndPan="magnify" viewBox="0 0 305.25 86.249997" height="115" preserveAspectRatio="xMidYMid meet" version="1.0"><defs><g/><clipPath id="5173d5dc10"><path d="M 79 4 L 80 4 L 80 85.507812 L 79 85.507812 Z M 79 4 " clip-rule="nonzero"/></clipPath><clipPath id="b84b710047"><rect x="0" width="145" y="0" height="17"/></clipPath><clipPath id="2efdf0900d"><path d="M 20 11 L 70.835938 11 L 70.835938 83 L 20 83 Z M 20 11 " clip-rule="nonzero"/></clipPath><clipPath id="b37c370a4c"><path d="M 1 7.203125 L 41 7.203125 L 41 70 L 1 70 Z M 1 7.203125 " clip-rule="nonzero"/></clipPath></defs><g clip-path="url(#5173d5dc10)"><path stroke-linecap="butt" transform="matrix(0.00000000129771, 0.743534, -0.743534, 0.00000000129771, 79.83401, 5.190511)" fill="none" stroke-linejoin="miter" d="M 0.00120396 0.501756 L 107.306465 0.501756 " stroke="#ffffff" stroke-width="1" stroke-opacity="1" stroke-miterlimit="4"/></g><g fill="#ffffff" fill-opacity="1"><g transform="translate(90.61643, 54.72663)"><g><path d="M 18.140625 -13.421875 C 19.660156 -13.097656 20.878906 -12.34375 21.796875 -11.15625 C 22.710938 -9.976562 23.171875 -8.632812 23.171875 -7.125 C 23.171875 -4.9375 22.40625 -3.203125 20.875 -1.921875 C 19.351562 -0.640625 17.226562 0 14.5 0 L 2.3125 0 L 2.3125 -26.15625 L 14.09375 -26.15625 C 16.75 -26.15625 18.828125 -25.546875 20.328125 -24.328125 C 21.828125 -23.117188 22.578125 -21.46875 22.578125 -19.375 C 22.578125 -17.832031 22.171875 -16.550781 21.359375 -15.53125 C 20.554688 -14.519531 19.484375 -13.816406 18.140625 -13.421875 Z M 8.6875 -15.578125 L 12.859375 -15.578125 C 13.898438 -15.578125 14.695312 -15.804688 15.25 -16.265625 C 15.8125 -16.722656 16.09375 -17.398438 16.09375 -18.296875 C 16.09375 -19.191406 15.8125 -19.875 15.25 -20.34375 C 14.695312 -20.820312 13.898438 -21.0625 12.859375 -21.0625 L 8.6875 -21.0625 Z M 13.375 -5.140625 C 14.445312 -5.140625 15.273438 -5.378906 15.859375 -5.859375 C 16.441406 -6.347656 16.734375 -7.050781 16.734375 -7.96875 C 16.734375 -8.894531 16.425781 -9.617188 15.8125 -10.140625 C 15.207031 -10.660156 14.367188 -10.921875 13.296875 -10.921875 L 8.6875 -10.921875 L 8.6875 -5.140625 Z M 13.375 -5.140625 "/></g></g></g><g fill="#ffffff" fill-opacity="1"><g transform="translate(116.660228, 54.72663)"><g><path d="M 8.6875 -21.0625 L 8.6875 -15.765625 L 17.21875 -15.765625 L 17.21875 -10.84375 L 8.6875 -10.84375 L 8.6875 -5.109375 L 18.328125 -5.109375 L 18.328125 0 L 2.3125 0 L 2.3125 -26.15625 L 18.328125 -26.15625 L 18.328125 -21.0625 Z M 8.6875 -21.0625 "/></g></g></g><g fill="#ffffff" fill-opacity="1"><g transform="translate(138.307578, 54.72663)"><g><path d="M 15.65625 0 L 10.203125 -9.875 L 8.6875 -9.875 L 8.6875 0 L 2.3125 0 L 2.3125 -26.15625 L 13 -26.15625 C 15.0625 -26.15625 16.816406 -25.796875 18.265625 -25.078125 C 19.722656 -24.359375 20.8125 -23.367188 21.53125 -22.109375 C 22.257812 -20.859375 22.625 -19.460938 22.625 -17.921875 C 22.625 -16.179688 22.128906 -14.628906 21.140625 -13.265625 C 20.160156 -11.898438 18.71875 -10.929688 16.8125 -10.359375 L 22.84375 0 Z M 8.6875 -14.390625 L 12.640625 -14.390625 C 13.804688 -14.390625 14.679688 -14.671875 15.265625 -15.234375 C 15.847656 -15.804688 16.140625 -16.613281 16.140625 -17.65625 C 16.140625 -18.65625 15.847656 -19.441406 15.265625 -20.015625 C 14.679688 -20.585938 13.804688 -20.875 12.640625 -20.875 L 8.6875 -20.875 Z M 8.6875 -14.390625 "/></g></g></g><g fill="#ffffff" fill-opacity="1"><g transform="translate(164.090579, 54.72663)"><g><path d="M 19.671875 -17.890625 C 19.203125 -18.753906 18.523438 -19.414062 17.640625 -19.875 C 16.765625 -20.34375 15.726562 -20.578125 14.53125 -20.578125 C 12.46875 -20.578125 10.816406 -19.898438 9.578125 -18.546875 C 8.335938 -17.191406 7.71875 -15.382812 7.71875 -13.125 C 7.71875 -10.707031 8.367188 -8.820312 9.671875 -7.46875 C 10.972656 -6.113281 12.769531 -5.4375 15.0625 -5.4375 C 16.625 -5.4375 17.941406 -5.832031 19.015625 -6.625 C 20.097656 -7.425781 20.890625 -8.570312 21.390625 -10.0625 L 13.296875 -10.0625 L 13.296875 -14.75 L 27.171875 -14.75 L 27.171875 -8.828125 C 26.691406 -7.242188 25.882812 -5.765625 24.75 -4.390625 C 23.625 -3.023438 22.191406 -1.921875 20.453125 -1.078125 C 18.710938 -0.234375 16.753906 0.1875 14.578125 0.1875 C 11.984375 0.1875 9.675781 -0.375 7.65625 -1.5 C 5.632812 -2.632812 4.054688 -4.207031 2.921875 -6.21875 C 1.796875 -8.226562 1.234375 -10.53125 1.234375 -13.125 C 1.234375 -15.707031 1.796875 -18.007812 2.921875 -20.03125 C 4.054688 -22.050781 5.628906 -23.625 7.640625 -24.75 C 9.648438 -25.882812 11.945312 -26.453125 14.53125 -26.453125 C 17.664062 -26.453125 20.304688 -25.691406 22.453125 -24.171875 C 24.597656 -22.660156 26.019531 -20.566406 26.71875 -17.890625 Z M 19.671875 -17.890625 "/></g></g></g><g fill="#ffffff" fill-opacity="1"><g transform="translate(193.971959, 54.72663)"><g><path d="M 8.6875 -21.0625 L 8.6875 -15.765625 L 17.21875 -15.765625 L 17.21875 -10.84375 L 8.6875 -10.84375 L 8.6875 -5.109375 L 18.328125 -5.109375 L 18.328125 0 L 2.3125 0 L 2.3125 -26.15625 L 18.328125 -26.15625 L 18.328125 -21.0625 Z M 8.6875 -21.0625 "/></g></g></g><g fill="#ffffff" fill-opacity="1"><g transform="translate(215.619309, 54.72663)"><g><path d="M 25.71875 0 L 19.34375 0 L 8.6875 -16.140625 L 8.6875 0 L 2.3125 0 L 2.3125 -26.15625 L 8.6875 -26.15625 L 19.34375 -9.953125 L 19.34375 -26.15625 L 25.71875 -26.15625 Z M 25.71875 0 "/></g></g></g><g fill="#ffffff" fill-opacity="1"><g transform="translate(245.128116, 54.72663)"><g><path d="M 11.78125 0.265625 C 9.863281 0.265625 8.144531 -0.046875 6.625 -0.671875 C 5.113281 -1.296875 3.90625 -2.210938 3 -3.421875 C 2.09375 -4.640625 1.613281 -6.109375 1.5625 -7.828125 L 8.34375 -7.828125 C 8.445312 -6.859375 8.78125 -6.117188 9.34375 -5.609375 C 9.914062 -5.097656 10.664062 -4.84375 11.59375 -4.84375 C 12.53125 -4.84375 13.269531 -5.0625 13.8125 -5.5 C 14.363281 -5.9375 14.640625 -6.535156 14.640625 -7.296875 C 14.640625 -7.941406 14.421875 -8.476562 13.984375 -8.90625 C 13.554688 -9.332031 13.023438 -9.679688 12.390625 -9.953125 C 11.753906 -10.222656 10.851562 -10.53125 9.6875 -10.875 C 8 -11.40625 6.617188 -11.929688 5.546875 -12.453125 C 4.484375 -12.972656 3.566406 -13.738281 2.796875 -14.75 C 2.023438 -15.769531 1.640625 -17.101562 1.640625 -18.75 C 1.640625 -21.175781 2.519531 -23.078125 4.28125 -24.453125 C 6.050781 -25.835938 8.347656 -26.53125 11.171875 -26.53125 C 14.054688 -26.53125 16.378906 -25.835938 18.140625 -24.453125 C 19.910156 -23.078125 20.859375 -21.160156 20.984375 -18.703125 L 14.09375 -18.703125 C 14.039062 -19.546875 13.726562 -20.207031 13.15625 -20.6875 C 12.582031 -21.175781 11.847656 -21.421875 10.953125 -21.421875 C 10.179688 -21.421875 9.5625 -21.21875 9.09375 -20.8125 C 8.625 -20.40625 8.390625 -19.816406 8.390625 -19.046875 C 8.390625 -18.203125 8.785156 -17.539062 9.578125 -17.0625 C 10.367188 -16.59375 11.609375 -16.085938 13.296875 -15.546875 C 14.992188 -14.972656 16.367188 -14.425781 17.421875 -13.90625 C 18.472656 -13.382812 19.382812 -12.625 20.15625 -11.625 C 20.925781 -10.632812 21.3125 -9.351562 21.3125 -7.78125 C 21.3125 -6.289062 20.929688 -4.9375 20.171875 -3.71875 C 19.421875 -2.507812 18.320312 -1.539062 16.875 -0.8125 C 15.4375 -0.09375 13.738281 0.265625 11.78125 0.265625 Z M 11.78125 0.265625 "/></g></g></g><g transform="matrix(1, 0, 0, 1, 92, 56)"><g clip-path="url(#b84b710047)"><g fill="#ffffff" fill-opacity="1"><g transform="translate(0.675793, 11.52367)"><g><path d="M 5.296875 -7.828125 L 5.296875 -7 L 1.890625 -7 L 1.890625 -4.359375 L 4.65625 -4.359375 L 4.65625 -3.53125 L 1.890625 -3.53125 L 1.890625 0 L 0.859375 0 L 0.859375 -7.828125 Z M 5.296875 -7.828125 "/></g></g></g><g fill="#ffffff" fill-opacity="1"><g transform="translate(8.736141, 11.52367)"><g><path d="M 4.421875 0.078125 C 3.691406 0.078125 3.023438 -0.0859375 2.421875 -0.421875 C 1.828125 -0.765625 1.351562 -1.242188 1 -1.859375 C 0.65625 -2.472656 0.484375 -3.160156 0.484375 -3.921875 C 0.484375 -4.679688 0.65625 -5.363281 1 -5.96875 C 1.351562 -6.582031 1.828125 -7.0625 2.421875 -7.40625 C 3.023438 -7.75 3.691406 -7.921875 4.421875 -7.921875 C 5.148438 -7.921875 5.8125 -7.75 6.40625 -7.40625 C 7.007812 -7.0625 7.484375 -6.585938 7.828125 -5.984375 C 8.171875 -5.378906 8.34375 -4.691406 8.34375 -3.921875 C 8.34375 -3.148438 8.171875 -2.457031 7.828125 -1.84375 C 7.484375 -1.238281 7.007812 -0.765625 6.40625 -0.421875 C 5.8125 -0.0859375 5.148438 0.078125 4.421875 0.078125 Z M 4.421875 -0.8125 C 4.960938 -0.8125 5.453125 -0.9375 5.890625 -1.1875 C 6.328125 -1.445312 6.671875 -1.8125 6.921875 -2.28125 C 7.171875 -2.75 7.296875 -3.296875 7.296875 -3.921875 C 7.296875 -4.546875 7.171875 -5.09375 6.921875 -5.5625 C 6.671875 -6.03125 6.328125 -6.390625 5.890625 -6.640625 C 5.460938 -6.898438 4.972656 -7.03125 4.421875 -7.03125 C 3.859375 -7.03125 3.359375 -6.898438 2.921875 -6.640625 C 2.492188 -6.390625 2.15625 -6.03125 1.90625 -5.5625 C 1.65625 -5.09375 1.53125 -4.546875 1.53125 -3.921875 C 1.53125 -3.296875 1.65625 -2.75 1.90625 -2.28125 C 2.15625 -1.8125 2.5 -1.445312 2.9375 -1.1875 C 3.375 -0.9375 3.867188 -0.8125 4.421875 -0.8125 Z M 4.421875 -0.8125 "/></g></g></g><g fill="#ffffff" fill-opacity="1"><g transform="translate(19.961668, 11.52367)"><g><path d="M 4.984375 0 L 3.125 -3.203125 L 1.890625 -3.203125 L 1.890625 0 L 0.859375 0 L 0.859375 -7.828125 L 3.390625 -7.828125 C 3.984375 -7.828125 4.484375 -7.722656 4.890625 -7.515625 C 5.296875 -7.316406 5.597656 -7.046875 5.796875 -6.703125 C 6.003906 -6.359375 6.109375 -5.96875 6.109375 -5.53125 C 6.109375 -4.988281 5.953125 -4.507812 5.640625 -4.09375 C 5.328125 -3.6875 4.863281 -3.414062 4.25 -3.28125 L 6.21875 0 Z M 1.890625 -4.015625 L 3.390625 -4.015625 C 3.941406 -4.015625 4.359375 -4.148438 4.640625 -4.421875 C 4.921875 -4.703125 5.0625 -5.070312 5.0625 -5.53125 C 5.0625 -5.988281 4.921875 -6.34375 4.640625 -6.59375 C 4.367188 -6.851562 3.953125 -6.984375 3.390625 -6.984375 L 1.890625 -6.984375 Z M 1.890625 -4.015625 "/></g></g></g><g fill="#ffffff" fill-opacity="1"><g transform="translate(29.189326, 11.52367)"><g><path d="M 3.34375 0.078125 C 2.832031 0.078125 2.367188 -0.0078125 1.953125 -0.1875 C 1.546875 -0.375 1.226562 -0.628906 1 -0.953125 C 0.769531 -1.285156 0.648438 -1.664062 0.640625 -2.09375 L 1.734375 -2.09375 C 1.765625 -1.726562 1.910156 -1.414062 2.171875 -1.15625 C 2.441406 -0.90625 2.832031 -0.78125 3.34375 -0.78125 C 3.832031 -0.78125 4.21875 -0.898438 4.5 -1.140625 C 4.78125 -1.390625 4.921875 -1.707031 4.921875 -2.09375 C 4.921875 -2.382812 4.835938 -2.625 4.671875 -2.8125 C 4.503906 -3 4.296875 -3.140625 4.046875 -3.234375 C 3.804688 -3.335938 3.476562 -3.445312 3.0625 -3.5625 C 2.539062 -3.695312 2.125 -3.832031 1.8125 -3.96875 C 1.5 -4.101562 1.234375 -4.3125 1.015625 -4.59375 C 0.796875 -4.882812 0.6875 -5.273438 0.6875 -5.765625 C 0.6875 -6.191406 0.796875 -6.566406 1.015625 -6.890625 C 1.234375 -7.222656 1.535156 -7.476562 1.921875 -7.65625 C 2.316406 -7.84375 2.769531 -7.9375 3.28125 -7.9375 C 4.007812 -7.9375 4.609375 -7.75 5.078125 -7.375 C 5.546875 -7.007812 5.8125 -6.523438 5.875 -5.921875 L 4.75 -5.921875 C 4.71875 -6.222656 4.5625 -6.488281 4.28125 -6.71875 C 4 -6.945312 3.628906 -7.0625 3.171875 -7.0625 C 2.742188 -7.0625 2.394531 -6.945312 2.125 -6.71875 C 1.863281 -6.5 1.734375 -6.191406 1.734375 -5.796875 C 1.734375 -5.515625 1.8125 -5.28125 1.96875 -5.09375 C 2.132812 -4.914062 2.332031 -4.78125 2.5625 -4.6875 C 2.800781 -4.59375 3.132812 -4.488281 3.5625 -4.375 C 4.082031 -4.226562 4.5 -4.082031 4.8125 -3.9375 C 5.125 -3.800781 5.390625 -3.585938 5.609375 -3.296875 C 5.835938 -3.015625 5.953125 -2.628906 5.953125 -2.140625 C 5.953125 -1.753906 5.847656 -1.390625 5.640625 -1.046875 C 5.441406 -0.710938 5.144531 -0.441406 4.75 -0.234375 C 4.351562 -0.0234375 3.882812 0.078125 3.34375 0.078125 Z M 3.34375 0.078125 "/></g></g></g><g fill="#ffffff" fill-opacity="1"><g transform="translate(38.181267, 11.52367)"><g><path d="M 5.109375 0 L 1.890625 -3.578125 L 1.890625 0 L 0.859375 0 L 0.859375 -7.828125 L 1.890625 -7.828125 L 1.890625 -4.203125 L 5.125 -7.828125 L 6.421875 -7.828125 L 2.859375 -3.90625 L 6.453125 0 Z M 5.109375 0 "/></g></g></g><g fill="#ffffff" fill-opacity="1"><g transform="translate(47.307903, 11.52367)"><g><path d="M 1.890625 -7.828125 L 1.890625 0 L 0.859375 0 L 0.859375 -7.828125 Z M 1.890625 -7.828125 "/></g></g></g><g fill="#ffffff" fill-opacity="1"><g transform="translate(52.47245, 11.52367)"><g><path d="M 7.015625 0 L 6 0 L 1.890625 -6.234375 L 1.890625 0 L 0.859375 0 L 0.859375 -7.84375 L 1.890625 -7.84375 L 6 -1.625 L 6 -7.84375 L 7.015625 -7.84375 Z M 7.015625 0 "/></g></g></g><g fill="#ffffff" fill-opacity="1"><g transform="translate(62.766383, 11.52367)"><g><path d="M 6.796875 -5.5625 C 6.578125 -6.019531 6.257812 -6.375 5.84375 -6.625 C 5.4375 -6.875 4.960938 -7 4.421875 -7 C 3.867188 -7 3.375 -6.875 2.9375 -6.625 C 2.5 -6.375 2.15625 -6.015625 1.90625 -5.546875 C 1.65625 -5.078125 1.53125 -4.535156 1.53125 -3.921875 C 1.53125 -3.304688 1.65625 -2.765625 1.90625 -2.296875 C 2.15625 -1.835938 2.5 -1.484375 2.9375 -1.234375 C 3.375 -0.984375 3.867188 -0.859375 4.421875 -0.859375 C 5.179688 -0.859375 5.804688 -1.082031 6.296875 -1.53125 C 6.796875 -1.988281 7.085938 -2.609375 7.171875 -3.390625 L 4.046875 -3.390625 L 4.046875 -4.21875 L 8.25 -4.21875 L 8.25 -3.4375 C 8.195312 -2.789062 8 -2.195312 7.65625 -1.65625 C 7.3125 -1.125 6.859375 -0.703125 6.296875 -0.390625 C 5.734375 -0.0859375 5.109375 0.0625 4.421875 0.0625 C 3.691406 0.0625 3.023438 -0.101562 2.421875 -0.4375 C 1.828125 -0.78125 1.351562 -1.253906 1 -1.859375 C 0.65625 -2.472656 0.484375 -3.160156 0.484375 -3.921875 C 0.484375 -4.679688 0.65625 -5.363281 1 -5.96875 C 1.351562 -6.582031 1.828125 -7.0625 2.421875 -7.40625 C 3.023438 -7.75 3.691406 -7.921875 4.421875 -7.921875 C 5.242188 -7.921875 5.972656 -7.710938 6.609375 -7.296875 C 7.253906 -6.890625 7.722656 -6.3125 8.015625 -5.5625 Z M 6.796875 -5.5625 "/></g></g></g><g fill="#ffffff" fill-opacity="1"><g transform="translate(73.902126, 11.52367)"><g><path d="M 3.34375 0.078125 C 2.832031 0.078125 2.367188 -0.0078125 1.953125 -0.1875 C 1.546875 -0.375 1.226562 -0.628906 1 -0.953125 C 0.769531 -1.285156 0.648438 -1.664062 0.640625 -2.09375 L 1.734375 -2.09375 C 1.765625 -1.726562 1.910156 -1.414062 2.171875 -1.15625 C 2.441406 -0.90625 2.832031 -0.78125 3.34375 -0.78125 C 3.832031 -0.78125 4.21875 -0.898438 4.5 -1.140625 C 4.78125 -1.390625 4.921875 -1.707031 4.921875 -2.09375 C 4.921875 -2.382812 4.835938 -2.625 4.671875 -2.8125 C 4.503906 -3 4.296875 -3.140625 4.046875 -3.234375 C 3.804688 -3.335938 3.476562 -3.445312 3.0625 -3.5625 C 2.539062 -3.695312 2.125 -3.832031 1.8125 -3.96875 C 1.5 -4.101562 1.234375 -4.3125 1.015625 -4.59375 C 0.796875 -4.882812 0.6875 -5.273438 0.6875 -5.765625 C 0.6875 -6.191406 0.796875 -6.566406 1.015625 -6.890625 C 1.234375 -7.222656 1.535156 -7.476562 1.921875 -7.65625 C 2.316406 -7.84375 2.769531 -7.9375 3.28125 -7.9375 C 4.007812 -7.9375 4.609375 -7.75 5.078125 -7.375 C 5.546875 -7.007812 5.8125 -6.523438 5.875 -5.921875 L 4.75 -5.921875 C 4.71875 -6.222656 4.5625 -6.488281 4.28125 -6.71875 C 4 -6.945312 3.628906 -7.0625 3.171875 -7.0625 C 2.742188 -7.0625 2.394531 -6.945312 2.125 -6.71875 C 1.863281 -6.5 1.734375 -6.191406 1.734375 -5.796875 C 1.734375 -5.515625 1.8125 -5.28125 1.96875 -5.09375 C 2.132812 -4.914062 2.332031 -4.78125 2.5625 -4.6875 C 2.800781 -4.59375 3.132812 -4.488281 3.5625 -4.375 C 4.082031 -4.226562 4.5 -4.082031 4.8125 -3.9375 C 5.125 -3.800781 5.390625 -3.585938 5.609375 -3.296875 C 5.835938 -3.015625 5.953125 -2.628906 5.953125 -2.140625 C 5.953125 -1.753906 5.847656 -1.390625 5.640625 -1.046875 C 5.441406 -0.710938 5.144531 -0.441406 4.75 -0.234375 C 4.351562 -0.0234375 3.882812 0.078125 3.34375 0.078125 Z M 3.34375 0.078125 "/></g></g></g><g fill="#ffffff" fill-opacity="1"><g transform="translate(82.894067, 11.52367)"><g><path d="M 8.8125 -7.78125 L 8.8125 0 L 7.78125 0 L 7.78125 -5.796875 L 5.203125 0 L 4.484375 0 L 1.890625 -5.8125 L 1.890625 0 L 0.859375 0 L 0.859375 -7.78125 L 1.96875 -7.78125 L 4.84375 -1.34375 L 7.71875 -7.78125 Z M 8.8125 -7.78125 "/></g></g></g><g fill="#ffffff" fill-opacity="1"><g transform="translate(94.961403, 11.52367)"><g><path d="M 1.859375 -7.828125 L 1.859375 -2.875 C 1.859375 -2.175781 2.03125 -1.65625 2.375 -1.3125 C 2.71875 -0.976562 3.191406 -0.8125 3.796875 -0.8125 C 4.398438 -0.8125 4.867188 -0.976562 5.203125 -1.3125 C 5.546875 -1.65625 5.71875 -2.175781 5.71875 -2.875 L 5.71875 -7.828125 L 6.734375 -7.828125 L 6.734375 -2.890625 C 6.734375 -2.234375 6.601562 -1.679688 6.34375 -1.234375 C 6.082031 -0.796875 5.726562 -0.46875 5.28125 -0.25 C 4.84375 -0.03125 4.34375 0.078125 3.78125 0.078125 C 3.226562 0.078125 2.726562 -0.03125 2.28125 -0.25 C 1.84375 -0.46875 1.492188 -0.796875 1.234375 -1.234375 C 0.972656 -1.679688 0.84375 -2.234375 0.84375 -2.890625 L 0.84375 -7.828125 Z M 1.859375 -7.828125 "/></g></g></g><g fill="#ffffff" fill-opacity="1"><g transform="translate(104.94106, 11.52367)"><g><path d="M 3.34375 0.078125 C 2.832031 0.078125 2.367188 -0.0078125 1.953125 -0.1875 C 1.546875 -0.375 1.226562 -0.628906 1 -0.953125 C 0.769531 -1.285156 0.648438 -1.664062 0.640625 -2.09375 L 1.734375 -2.09375 C 1.765625 -1.726562 1.910156 -1.414062 2.171875 -1.15625 C 2.441406 -0.90625 2.832031 -0.78125 3.34375 -0.78125 C 3.832031 -0.78125 4.21875 -0.898438 4.5 -1.140625 C 4.78125 -1.390625 4.921875 -1.707031 4.921875 -2.09375 C 4.921875 -2.382812 4.835938 -2.625 4.671875 -2.8125 C 4.503906 -3 4.296875 -3.140625 4.046875 -3.234375 C 3.804688 -3.335938 3.476562 -3.445312 3.0625 -3.5625 C 2.539062 -3.695312 2.125 -3.832031 1.8125 -3.96875 C 1.5 -4.101562 1.234375 -4.3125 1.015625 -4.59375 C 0.796875 -4.882812 0.6875 -5.273438 0.6875 -5.765625 C 0.6875 -6.191406 0.796875 -6.566406 1.015625 -6.890625 C 1.234375 -7.222656 1.535156 -7.476562 1.921875 -7.65625 C 2.316406 -7.84375 2.769531 -7.9375 3.28125 -7.9375 C 4.007812 -7.9375 4.609375 -7.75 5.078125 -7.375 C 5.546875 -7.007812 5.8125 -6.523438 5.875 -5.921875 L 4.75 -5.921875 C 4.71875 -6.222656 4.5625 -6.488281 4.28125 -6.71875 C 4 -6.945312 3.628906 -7.0625 3.171875 -7.0625 C 2.742188 -7.0625 2.394531 -6.945312 2.125 -6.71875 C 1.863281 -6.5 1.734375 -6.191406 1.734375 -5.796875 C 1.734375 -5.515625 1.8125 -5.28125 1.96875 -5.09375 C 2.132812 -4.914062 2.332031 -4.78125 2.5625 -4.6875 C 2.800781 -4.59375 3.132812 -4.488281 3.5625 -4.375 C 4.082031 -4.226562 4.5 -4.082031 4.8125 -3.9375 C 5.125 -3.800781 5.390625 -3.585938 5.609375 -3.296875 C 5.835938 -3.015625 5.953125 -2.628906 5.953125 -2.140625 C 5.953125 -1.753906 5.847656 -1.390625 5.640625 -1.046875 C 5.441406 -0.710938 5.144531 -0.441406 4.75 -0.234375 C 4.351562 -0.0234375 3.882812 0.078125 3.34375 0.078125 Z M 3.34375 0.078125 "/></g></g></g><g fill="#ffffff" fill-opacity="1"><g transform="translate(113.933001, 11.52367)"><g><path d="M 1.890625 -7 L 1.890625 -4.375 L 4.734375 -4.375 L 4.734375 -3.53125 L 1.890625 -3.53125 L 1.890625 -0.84375 L 5.078125 -0.84375 L 5.078125 0 L 0.859375 0 L 0.859375 -7.84375 L 5.078125 -7.84375 L 5.078125 -7 Z M 1.890625 -7 "/></g></g></g><g fill="#ffffff" fill-opacity="1"><g transform="translate(122.09437, 11.52367)"><g><path d="M 1.859375 -7.828125 L 1.859375 -2.875 C 1.859375 -2.175781 2.03125 -1.65625 2.375 -1.3125 C 2.71875 -0.976562 3.191406 -0.8125 3.796875 -0.8125 C 4.398438 -0.8125 4.867188 -0.976562 5.203125 -1.3125 C 5.546875 -1.65625 5.71875 -2.175781 5.71875 -2.875 L 5.71875 -7.828125 L 6.734375 -7.828125 L 6.734375 -2.890625 C 6.734375 -2.234375 6.601562 -1.679688 6.34375 -1.234375 C 6.082031 -0.796875 5.726562 -0.46875 5.28125 -0.25 C 4.84375 -0.03125 4.34375 0.078125 3.78125 0.078125 C 3.226562 0.078125 2.726562 -0.03125 2.28125 -0.25 C 1.84375 -0.46875 1.492188 -0.796875 1.234375 -1.234375 C 0.972656 -1.679688 0.84375 -2.234375 0.84375 -2.890625 L 0.84375 -7.828125 Z M 1.859375 -7.828125 "/></g></g></g><g fill="#ffffff" fill-opacity="1"><g transform="translate(132.074027, 11.52367)"><g><path d="M 8.8125 -7.78125 L 8.8125 0 L 7.78125 0 L 7.78125 -5.796875 L 5.203125 0 L 4.484375 0 L 1.890625 -5.8125 L 1.890625 0 L 0.859375 0 L 0.859375 -7.78125 L 1.96875 -7.78125 L 4.84375 -1.34375 L 7.71875 -7.78125 Z M 8.8125 -7.78125 "/></g></g></g></g></g><path fill="#ffffff" d="M 25.761719 23.515625 C 15.878906 21.714844 8.0625 23.597656 4.949219 28.992188 C 2.625 33.019531 3.289062 38.355469 6.558594 44.0625 C 6.625 44.179688 6.710938 44.277344 6.820312 44.359375 C 6.925781 44.441406 7.042969 44.5 7.171875 44.535156 C 7.304688 44.570312 7.433594 44.578125 7.566406 44.5625 C 7.699219 44.542969 7.824219 44.503906 7.941406 44.4375 C 8.058594 44.367188 8.15625 44.28125 8.238281 44.175781 C 8.320312 44.070312 8.378906 43.953125 8.414062 43.820312 C 8.449219 43.691406 8.460938 43.558594 8.441406 43.425781 C 8.425781 43.292969 8.382812 43.167969 8.316406 43.050781 C 5.371094 37.910156 4.796875 33.304688 6.703125 30.003906 C 9.304688 25.523438 16.261719 23.84375 25.398438 25.507812 C 25.53125 25.53125 25.664062 25.527344 25.792969 25.5 C 25.925781 25.472656 26.046875 25.417969 26.15625 25.34375 C 26.265625 25.265625 26.359375 25.171875 26.429688 25.058594 C 26.503906 24.945312 26.550781 24.824219 26.578125 24.691406 C 26.601562 24.558594 26.597656 24.429688 26.570312 24.296875 C 26.542969 24.164062 26.488281 24.046875 26.414062 23.933594 C 26.335938 23.824219 26.242188 23.734375 26.128906 23.660156 C 26.015625 23.585938 25.894531 23.539062 25.761719 23.515625 Z M 11.699219 50.984375 C 15.695312 55.375 20.886719 59.496094 26.808594 62.914062 C 41.15625 71.191406 56.421875 73.414062 63.933594 68.285156 C 64.042969 68.210938 64.136719 68.117188 64.210938 68.003906 C 64.28125 67.890625 64.332031 67.769531 64.355469 67.636719 C 64.382812 67.503906 64.378906 67.371094 64.351562 67.242188 C 64.324219 67.109375 64.273438 66.988281 64.199219 66.878906 C 64.125 66.765625 64.027344 66.675781 63.917969 66.601562 C 63.804688 66.527344 63.683594 66.480469 63.550781 66.453125 C 63.417969 66.429688 63.285156 66.429688 63.15625 66.457031 C 63.023438 66.484375 62.902344 66.535156 62.789062 66.613281 C 56.058594 71.203125 41.558594 69.101562 27.808594 61.167969 C 22.066406 57.851562 17.039062 53.863281 13.183594 49.628906 C 13.09375 49.53125 12.988281 49.453125 12.867188 49.394531 C 12.746094 49.339844 12.617188 49.308594 12.484375 49.300781 C 12.347656 49.292969 12.21875 49.3125 12.089844 49.359375 C 11.964844 49.40625 11.851562 49.472656 11.753906 49.5625 C 11.652344 49.652344 11.574219 49.757812 11.519531 49.882812 C 11.460938 50.003906 11.429688 50.132812 11.421875 50.265625 C 11.417969 50.398438 11.4375 50.53125 11.480469 50.65625 C 11.527344 50.78125 11.59375 50.894531 11.683594 50.996094 Z M 61.542969 49.765625 C 68.015625 42.117188 70.273438 34.429688 67.167969 29.046875 C 64.878906 25.085938 60.046875 22.992188 53.617188 22.910156 C 53.484375 22.910156 53.355469 22.933594 53.230469 22.984375 C 53.105469 23.035156 52.996094 23.105469 52.898438 23.199219 C 52.804688 23.292969 52.726562 23.402344 52.675781 23.523438 C 52.621094 23.648438 52.59375 23.777344 52.589844 23.910156 C 52.589844 24.046875 52.613281 24.175781 52.664062 24.300781 C 52.714844 24.425781 52.785156 24.535156 52.878906 24.628906 C 52.972656 24.726562 53.082031 24.800781 53.207031 24.855469 C 53.328125 24.90625 53.457031 24.9375 53.589844 24.9375 C 59.382812 25.011719 63.535156 26.816406 65.410156 30.0625 C 67.992188 34.53125 65.976562 41.390625 59.996094 48.457031 C 59.90625 48.558594 59.84375 48.675781 59.804688 48.804688 C 59.761719 48.929688 59.746094 49.0625 59.757812 49.195312 C 59.769531 49.328125 59.804688 49.457031 59.867188 49.574219 C 59.929688 49.695312 60.011719 49.796875 60.113281 49.886719 C 60.214844 49.972656 60.332031 50.035156 60.457031 50.078125 C 60.585938 50.117188 60.71875 50.132812 60.851562 50.121094 C 60.984375 50.109375 61.113281 50.074219 61.230469 50.011719 C 61.351562 49.953125 61.453125 49.871094 61.542969 49.765625 Z M 44.910156 23.851562 C 39.0625 25.101562 32.832031 27.554688 26.851562 31.007812 C 12.050781 39.554688 2.394531 52.167969 3.734375 61.289062 C 3.753906 61.421875 3.796875 61.546875 3.867188 61.660156 C 3.933594 61.777344 4.023438 61.875 4.132812 61.953125 C 4.238281 62.035156 4.359375 62.089844 4.488281 62.125 C 4.617188 62.15625 4.75 62.164062 4.882812 62.144531 C 5.015625 62.125 5.140625 62.082031 5.253906 62.011719 C 5.371094 61.941406 5.46875 61.855469 5.546875 61.746094 C 5.628906 61.640625 5.683594 61.519531 5.71875 61.390625 C 5.75 61.261719 5.757812 61.128906 5.738281 60.996094 C 4.546875 52.882812 13.699219 40.941406 27.863281 32.75 C 33.652344 29.398438 39.695312 27.027344 45.335938 25.816406 C 45.464844 25.789062 45.585938 25.738281 45.695312 25.660156 C 45.808594 25.585938 45.898438 25.488281 45.972656 25.378906 C 46.042969 25.265625 46.09375 25.140625 46.117188 25.011719 C 46.140625 24.878906 46.140625 24.746094 46.113281 24.617188 C 46.085938 24.484375 46.03125 24.363281 45.957031 24.253906 C 45.878906 24.140625 45.785156 24.050781 45.671875 23.976562 C 45.558594 23.90625 45.4375 23.855469 45.304688 23.832031 C 45.171875 23.808594 45.042969 23.808594 44.910156 23.835938 Z M 44.910156 23.851562 " fill-opacity="1" fill-rule="evenodd"/><g clip-path="url(#2efdf0900d)"><path fill="#ffffff" d="M 20.933594 67.625 C 24.316406 77.074219 29.851562 82.894531 36.078125 82.894531 C 40.617188 82.894531 44.820312 79.796875 48.09375 74.347656 C 48.164062 74.234375 48.207031 74.109375 48.226562 73.976562 C 48.246094 73.84375 48.238281 73.710938 48.207031 73.582031 C 48.175781 73.453125 48.121094 73.332031 48.039062 73.222656 C 47.960938 73.117188 47.863281 73.027344 47.746094 72.957031 C 47.632812 72.890625 47.507812 72.84375 47.375 72.824219 C 47.242188 72.804688 47.109375 72.8125 46.980469 72.84375 C 46.851562 72.875 46.730469 72.933594 46.621094 73.011719 C 46.515625 73.089844 46.425781 73.1875 46.355469 73.304688 C 43.402344 78.199219 39.796875 80.863281 36.078125 80.863281 C 30.910156 80.863281 25.972656 75.664062 22.84375 66.941406 C 22.796875 66.816406 22.730469 66.703125 22.636719 66.605469 C 22.546875 66.503906 22.441406 66.425781 22.320312 66.367188 C 22.199219 66.3125 22.070312 66.277344 21.9375 66.273438 C 21.804688 66.265625 21.671875 66.285156 21.546875 66.332031 C 21.417969 66.375 21.308594 66.445312 21.207031 66.535156 C 21.109375 66.625 21.03125 66.730469 20.972656 66.851562 C 20.914062 66.972656 20.882812 67.101562 20.875 67.234375 C 20.871094 67.371094 20.890625 67.5 20.933594 67.625 Z M 51.839844 65.777344 C 53.59375 60.179688 54.535156 53.722656 54.535156 46.992188 C 54.535156 30.203125 48.65625 15.726562 40.285156 12.011719 C 40.164062 11.957031 40.035156 11.929688 39.898438 11.925781 C 39.765625 11.921875 39.636719 11.945312 39.511719 11.996094 C 39.386719 12.042969 39.273438 12.113281 39.175781 12.207031 C 39.078125 12.296875 39.003906 12.40625 38.949219 12.527344 C 38.894531 12.652344 38.863281 12.78125 38.863281 12.914062 C 38.859375 13.046875 38.882812 13.179688 38.929688 13.304688 C 38.976562 13.429688 39.046875 13.539062 39.140625 13.636719 C 39.234375 13.734375 39.339844 13.8125 39.464844 13.867188 C 46.929688 17.179688 52.503906 30.917969 52.503906 46.996094 C 52.503906 53.523438 51.59375 59.777344 49.90625 65.175781 C 49.867188 65.300781 49.851562 65.433594 49.863281 65.566406 C 49.875 65.699219 49.914062 65.828125 49.976562 65.945312 C 50.039062 66.066406 50.121094 66.167969 50.222656 66.253906 C 50.324219 66.339844 50.441406 66.402344 50.570312 66.445312 C 50.699219 66.484375 50.828125 66.5 50.960938 66.484375 C 51.097656 66.472656 51.222656 66.4375 51.34375 66.375 C 51.460938 66.3125 51.5625 66.230469 51.648438 66.128906 C 51.734375 66.023438 51.800781 65.910156 51.839844 65.78125 Z M 70.929688 64.785156 C 70.929688 62.105469 68.757812 59.933594 66.078125 59.933594 C 63.398438 59.933594 61.214844 62.09375 61.214844 64.785156 C 61.214844 67.476562 63.386719 69.636719 66.066406 69.636719 C 68.746094 69.636719 70.917969 67.464844 70.917969 64.785156 Z M 68.902344 64.785156 C 68.902344 65.160156 68.832031 65.519531 68.6875 65.867188 C 68.542969 66.210938 68.339844 66.515625 68.074219 66.78125 C 67.8125 67.046875 67.503906 67.25 67.160156 67.394531 C 66.8125 67.535156 66.453125 67.609375 66.078125 67.609375 C 65.707031 67.609375 65.34375 67.535156 65 67.394531 C 64.652344 67.25 64.347656 67.046875 64.082031 66.78125 C 63.820312 66.515625 63.613281 66.210938 63.472656 65.867188 C 63.328125 65.519531 63.257812 65.160156 63.257812 64.785156 C 63.257812 64.410156 63.328125 64.050781 63.472656 63.707031 C 63.613281 63.359375 63.820312 63.054688 64.082031 62.789062 C 64.347656 62.523438 64.652344 62.320312 65 62.175781 C 65.34375 62.035156 65.707031 61.960938 66.078125 61.960938 C 66.453125 61.960938 66.8125 62.035156 67.160156 62.175781 C 67.503906 62.320312 67.8125 62.523438 68.074219 62.789062 C 68.339844 63.054688 68.542969 63.359375 68.6875 63.707031 C 68.832031 64.050781 68.902344 64.410156 68.902344 64.785156 Z M 68.902344 64.785156 " fill-opacity="1" fill-rule="evenodd"/></g><g clip-path="url(#b37c370a4c)"><path fill="#ffffff" d="M 6.007812 69.636719 C 8.6875 69.636719 10.859375 67.464844 10.859375 64.785156 C 10.859375 62.105469 8.6875 59.933594 6.007812 59.933594 C 5.6875 59.933594 5.371094 59.964844 5.058594 60.027344 C 4.746094 60.089844 4.445312 60.183594 4.148438 60.304688 C 3.855469 60.425781 3.578125 60.574219 3.3125 60.753906 C 3.046875 60.929688 2.800781 61.128906 2.578125 61.355469 C 2.351562 61.582031 2.148438 61.824219 1.972656 62.089844 C 1.796875 62.355469 1.648438 62.636719 1.523438 62.929688 C 1.402344 63.222656 1.3125 63.527344 1.25 63.839844 C 1.1875 64.152344 1.15625 64.46875 1.15625 64.785156 C 1.15625 65.105469 1.1875 65.421875 1.25 65.734375 C 1.3125 66.046875 1.402344 66.347656 1.527344 66.640625 C 1.648438 66.9375 1.796875 67.214844 1.972656 67.480469 C 2.152344 67.746094 2.351562 67.992188 2.578125 68.214844 C 2.800781 68.441406 3.046875 68.640625 3.3125 68.820312 C 3.578125 68.996094 3.855469 69.144531 4.152344 69.269531 C 4.445312 69.390625 4.75 69.480469 5.0625 69.542969 C 5.375 69.605469 5.6875 69.636719 6.007812 69.636719 Z M 6.007812 67.609375 C 5.632812 67.609375 5.273438 67.539062 4.925781 67.394531 C 4.582031 67.25 4.277344 67.046875 4.011719 66.78125 C 3.746094 66.519531 3.542969 66.210938 3.398438 65.867188 C 3.253906 65.519531 3.183594 65.160156 3.183594 64.785156 C 3.183594 64.414062 3.253906 64.050781 3.398438 63.707031 C 3.542969 63.359375 3.746094 63.054688 4.011719 62.789062 C 4.277344 62.527344 4.582031 62.320312 4.925781 62.179688 C 5.273438 62.035156 5.632812 61.964844 6.007812 61.964844 C 6.382812 61.964844 6.742188 62.035156 7.085938 62.179688 C 7.433594 62.320312 7.738281 62.527344 8.003906 62.789062 C 8.265625 63.054688 8.472656 63.359375 8.613281 63.707031 C 8.757812 64.050781 8.828125 64.414062 8.828125 64.785156 C 8.828125 65.160156 8.757812 65.519531 8.613281 65.867188 C 8.472656 66.210938 8.265625 66.519531 8.003906 66.78125 C 7.738281 67.046875 7.433594 67.25 7.085938 67.394531 C 6.742188 67.539062 6.382812 67.609375 6.007812 67.609375 Z M 36.078125 16.949219 C 38.757812 16.949219 40.929688 14.777344 40.929688 12.097656 C 40.929688 9.417969 38.757812 7.257812 36.078125 7.257812 C 33.402344 7.257812 31.226562 9.429688 31.226562 12.109375 C 31.226562 14.789062 33.398438 16.949219 36.078125 16.949219 Z M 36.078125 14.921875 C 35.703125 14.921875 35.34375 14.851562 35 14.707031 C 34.652344 14.5625 34.347656 14.359375 34.082031 14.09375 C 33.816406 13.832031 33.613281 13.523438 33.46875 13.179688 C 33.328125 12.832031 33.253906 12.472656 33.253906 12.097656 C 33.253906 11.726562 33.328125 11.363281 33.46875 11.019531 C 33.613281 10.671875 33.816406 10.367188 34.082031 10.101562 C 34.347656 9.839844 34.652344 9.632812 35 9.492188 C 35.34375 9.347656 35.703125 9.277344 36.078125 9.277344 C 36.453125 9.277344 36.8125 9.347656 37.160156 9.492188 C 37.503906 9.632812 37.808594 9.839844 38.074219 10.101562 C 38.339844 10.367188 38.542969 10.671875 38.6875 11.019531 C 38.828125 11.363281 38.902344 11.726562 38.902344 12.097656 C 38.902344 12.472656 38.828125 12.832031 38.6875 13.179688 C 38.542969 13.523438 38.339844 13.832031 38.074219 14.09375 C 37.808594 14.359375 37.503906 14.5625 37.160156 14.707031 C 36.8125 14.851562 36.453125 14.921875 36.078125 14.921875 Z M 36.820312 50.421875 C 36.363281 50.523438 35.902344 50.535156 35.445312 50.453125 C 34.984375 50.371094 34.554688 50.207031 34.164062 49.953125 C 33.769531 49.703125 33.4375 49.382812 33.171875 49 C 32.90625 48.617188 32.722656 48.195312 32.625 47.738281 C 32.527344 47.28125 32.519531 46.824219 32.601562 46.363281 C 32.6875 45.902344 32.855469 45.476562 33.113281 45.085938 C 33.367188 44.695312 33.6875 44.367188 34.070312 44.101562 C 34.457031 43.835938 34.878906 43.65625 35.335938 43.5625 C 35.792969 43.460938 36.25 43.449219 36.710938 43.53125 C 37.171875 43.613281 37.597656 43.78125 37.992188 44.03125 C 38.386719 44.285156 38.714844 44.601562 38.980469 44.984375 C 39.25 45.371094 39.433594 45.789062 39.53125 46.246094 C 39.628906 46.703125 39.636719 47.160156 39.550781 47.621094 C 39.46875 48.082031 39.296875 48.507812 39.042969 48.898438 C 38.789062 49.292969 38.46875 49.621094 38.082031 49.882812 C 37.699219 50.148438 37.277344 50.328125 36.820312 50.421875 Z M 36.820312 50.421875 " fill-opacity="1" fill-rule="evenodd"/></g></svg>